<svg width="496.067" height="483.898" xmlns="http://www.w3.org/2000/svg"><g fill="none" fill-rule="evenodd"><path d="M72.898 33.672c-5.43 12.42-14.1 20.35-26.31 25.66a120.474 120.474 0 0 0-5.51 2.58" stroke="#80818F"/><path d="M41.078 61.912c5.126 2.34 9.82 4.936 14.08 7.79 9.133 6.12 15.703 14.513 19.71 25.18" stroke="#39765F"/><path d="M74.868 94.882c-.087 1.313.343 2.803 1.29 4.47.353.633.626.6.82-.1 4.573-16.567 14.68-28.47 30.32-35.71" stroke="#1B545E"/><path d="m107.298 63.542 3.34-1.5c.486-.214.48-.417-.02-.61-17.65-6.77-28.73-19.68-33.82-37.83a.13.13 0 0 0-.25 0l-3.65 10.07" stroke="#39765F"/><path d="M107.298 63.542c-.287-1.56-1.19-2.457-2.71-2.69-12.74-1.9-25.11 2.56-28.76 15.98-.534 1.946-.814 4.94-.84 8.98-.02 2.926-.06 5.95-.12 9.07" stroke="#54C69E"/><path d="M41.078 61.912c1.76.113 3.273.113 4.54 0 4.96-.43 9.61.09 14.61-.88 2.82-.55 4.78-2.55 7.95-3.1a1.71 1.71 0 0 0 .84-.42c3.233-2.887 5.166-4.87 5.8-5.95 2.9-4.93 4.87-15.09-1.92-17.89" stroke="#B8F4CF"/><path d="M235.568 15.622c-4.267.586-7.38 2.81-9.34 6.67" stroke="#80818F"/><path d="M226.228 22.292c-2.5 4.093-2.057 8.34 1.33 12.74" stroke="#805539"/><path d="M227.558 35.032c5.58 6.56 14.75 7.32 20.75 1.25 2.826-2.86 3.906-6.374 3.24-10.54" stroke="#7F3C38"/><path d="M251.548 25.742c-2.294-7.64-7.62-11.014-15.98-10.12" stroke="#805539"/><path d="M251.548 25.742c-4.94-.76-8.187-.837-9.74-.23-2.39.93-5.62 5.66-7.72 7.63-.24.226-.52.38-.84.46l-5.69 1.43" stroke="#FE8E51"/><path d="M226.228 22.292c1.793 2.986 4.243 3.846 7.35 2.58 2.12-.86 4.03-3.04 3.8-5.34-.154-1.487-.757-2.79-1.81-3.91" stroke="#FFD3A9"/><path d="M418.868 39.372c-4.254 8.18-10.617 14.42-19.09 18.72" stroke="#80818F"/><path d="M399.778 58.092c-1.46.94-2.987 1.59-4.58 1.95-1.46.326-1.484.746-.07 1.26 11.3 4.053 19.996 11.716 26.09 22.99" stroke="#7F2A5F"/><path d="m421.218 84.292 1.71 4.4c.36.94.663.92.91-.06 3.19-12.63 14.18-20.69 24.93-26.56" stroke="#751F51"/><path d="m448.768 62.072 2.53-.72a.48.48 0 0 0 .05-.91c-11.847-5.04-20.48-13.327-25.9-24.86-.7-1.49-1.22-3.53-1.92-5.28-.187-.467-.38-.474-.58-.02l-4.08 9.09" stroke="#7F2A5F"/><path d="M448.768 62.072c-.607-.134-1.054-.547-1.34-1.24a.93.93 0 0 0-.66-.54c-11.68-2.47-26.17 4.14-25.25 17.76.193 2.84.093 4.92-.3 6.24" stroke="#F44691"/><path d="M399.778 58.092c3.54 1.8 6.563 1.216 9.07-1.75a1.33 1.33 0 0 1 1.99-.05c2.12 2.293 4.496 2.406 7.13.34 5.94-4.66 7.34-8.47 5.54-15.34a.884.884 0 0 0-.456-.57.906.906 0 0 0-.734-.04c-1.094.42-2.244-.017-3.45-1.31" stroke="#FFA8CF"/><path stroke="#677778" d="m198.178 182.431 8.58 7.91"/><path d="m206.758 190.342 9.97 9.46a.64.64 0 0 0 .9-.01 3030.29 3030.29 0 0 1 25.98-25.71c5.873-5.747 10.306-9.647 13.3-11.7 22.39-15.4 53.36-11.56 68.38 12.21" stroke="#3A5165"/><path d="M325.288 174.592c6.193 12.106 7.056 24.48 2.59 37.12" stroke="#506570"/><path d="M327.878 211.712c-1.494 4.12-3.174 7.533-5.04 10.24" stroke="#677778"/><path d="M322.838 221.952c-2.034 2.893-3.47 4.743-4.31 5.55a15411.407 15411.407 0 0 1-33.71 32.29c-2.434 2.32-4.9 4.546-7.4 6.68-.227.193-.234.39-.02.59l10.19 9.57" stroke="gray"/><path stroke="#677778" d="m287.588 276.631 8.94 8.46"/><path d="m296.528 285.092 10.73 9.75a.84.84 0 0 0 1.14-.02c5.42-5.23 10.87-11.14 15.92-16a2887.317 2887.317 0 0 0 33.26-32.53c14.09-13.99 22.04-36.32 21.21-56.03" stroke="#3A5165"/><path d="M378.788 190.262c.38-25.33-10.44-49.11-30.22-64.94-7.174-5.747-14.7-10.32-22.58-13.72" stroke="#506570"/><path d="M325.988 111.602c-15.79-6.51-31.42-8.3-46.92-6.72-14.41 1.46-32.48 7.69-43.45 18.21a6256.606 6256.606 0 0 1-48.95 46.46c-.727.686-.727 1.37 0 2.05l11.51 10.83" stroke="gray"/><path d="M325.988 111.602a149.92 149.92 0 0 1-3.49 13.59c-.787 2.56-.23 4.396 1.67 5.51 5.386 3.153 10.113 6.336 14.18 9.55 15.42 12.18 23.22 31.13 23.48 50.73" stroke="#D0E5EF"/><path d="M361.828 190.982c-.047 9.42-1.73 18.626-5.05 27.62" stroke="#B9D0E4"/><path d="M356.778 218.602a11.14 11.14 0 0 1-2.53-.75c-3.76-1.6-13.8.36-10.38-7.76" stroke="#E7F7F8"/><path d="M343.868 210.092c3.84-12.46 3.42-27.54-1.94-39.59" stroke="#D0E5EF"/><path d="M341.928 170.502c-5.04-10.734-12.537-18.844-22.49-24.33-20.294-11.187-41.45-11.777-63.47-1.77" stroke="#B9D0E4"/><path d="m255.968 144.402 2.67-6.75a1.32 1.32 0 0 0 0-.99c-1.37-3.41-6.47-7.36-10-4.03-16.3 15.36-32.92 30.47-48.89 46.18-1.19 1.16-1.29 2.04-1.57 3.62" stroke="#E7F7F8"/><path d="M255.968 144.402c-4.514 2.926-7.8 5.403-9.86 7.43-13.02 12.87-26.94 25.06-39.35 38.51" stroke="#A1C8DD"/><path d="m287.588 276.632 43.86-43.08a.92.92 0 0 0-.27-1.49c-4.054-1.84-6.834-5.21-8.34-10.11" stroke="#E7F7F8"/><path d="M378.788 190.262c-.42.033-.684.263-.79.69-.067.286-.247.43-.54.43a1.8 1.8 0 0 0-.63.11 1.81 1.81 0 0 1-.94.07 21.6 21.6 0 0 0-4.99-.32c-1.77.1-3.81-.65-5.58-1.39-1.72-.72-2.884-.344-3.49 1.13" stroke="#8AB6D4"/><path d="M296.528 285.092a3016.069 3016.069 0 0 1 42.62-41.22c7.43-7.05 14.14-15.58 17.63-25.27" stroke="#A1C8DD"/><path d="m343.868 210.092-2.35.48a4.412 4.412 0 0 0-.91.3c-1.21.56-2.95.22-4.11.41-2.787.466-5.66.61-8.62.43" stroke="#B7DCE8"/><path d="m341.928 170.502-.02 3.94c0 .333-.167.503-.5.51a70.552 70.552 0 0 1-4.6-.01c-1.69-.05-3.08-.82-4.88-.92-.3-.02-.597.013-.89.1-.527.153-1 .08-1.42-.22a1.31 1.31 0 0 0-.78-.25h-2a.58.58 0 0 0-.56.35c-.187.386-.517.583-.99.59" stroke="#8AB6D4"/><path stroke="#677778" d="m113.688 260.441-1.15 15.63"/><path d="M112.538 276.072c.2 25.83 11.3 49.04 31.19 65.57 8.533 7.1 16.863 12.196 24.99 15.29 22.96 8.73 53.33 8.84 76.1-3.32 6.76-3.61 12.55-8.6 18.05-14.02a4044.259 4044.259 0 0 1 34.38-33.44.415.415 0 0 0 .127-.299.395.395 0 0 0-.127-.291l-10.12-9.63" stroke="#3A5165"/><path stroke="#677778" d="m287.128 295.931-7.97-7.45"/><path d="m279.158 288.482-11.17-10.65a.64.64 0 0 0-.9.01 556.451 556.451 0 0 1-17.56 17.25c-11.99 11.29-19.48 18.18-34.08 20.6m-16.15.28-11.01-2.76" stroke="gray"/><path d="M188.288 313.212c-16.89-6.83-28.04-21.53-27.85-40.18" stroke="#506570"/><path d="M160.438 273.032c.16-16.16 8.89-26.66 19.87-37.25a8019.694 8019.694 0 0 0 25.42-24.63.275.275 0 0 0 .087-.202.295.295 0 0 0-.087-.208l-9.13-9.11" stroke="#3A5165"/><path stroke="#677778" d="m196.598 201.631-8.71-8.05"/><path d="m187.888 193.582-11.62-11.66c-.247-.247-.494-.25-.74-.01a5946.242 5946.242 0 0 1-35.49 33.45c-6.514 6.08-11.064 10.923-13.65 14.53-6.48 9.046-10.714 19.23-12.7 30.55" stroke="gray"/><path d="M187.888 193.582a108.33 108.33 0 0 0-14.61 12.16 5653.733 5653.733 0 0 1-34.89 34.37c-2.9 2.83-3.77 6.19-1.22 9.6 2.48 3.326 6.36 3.826 11.64 1.5" stroke="#E7F7F8"/><path d="M148.808 251.212c-3.86 7.793-5.56 15.57-5.1 23.33" stroke="#B9D0E4"/><path d="M143.708 274.542c-1.13 14.73 7.23 32.34 17.91 42.13 2.36 2.17 20.16 15.03 22.07 9.99 1.08-2.83-.92-6.06.71-9.13.9-1.7 2.196-3.14 3.89-4.32" stroke="#D0E5EF"/><path d="M279.158 288.482a53.973 53.973 0 0 0-9.53 7.62 751.902 751.902 0 0 1-26.47 25.29c-5.514 5.02-12.267 8.553-20.26 10.6-5.27 1.35-16.22-.21-18.77 5.39-1.294 2.853-.294 5.946 3 9.28" stroke="#E7F7F8"/><path d="M207.128 346.662c-22.28 1.206-41.04-5.18-56.28-19.16-12.98-11.91-22.84-31.51-23.1-50.16" stroke="#B9D0E4"/><path d="M127.748 277.342c.046-3.507.04-7.034-.02-10.58-.067-3.827-2.13-5.917-6.19-6.27-3.054-.26-5.67-.277-7.85-.05" stroke="#E7F7F8"/><path d="M160.438 273.032c-.334.393-.81.103-1.43-.87-.194-.3-.464-.42-.81-.36-2.91.49-4.54 2.58-6.5 3.58a53.86 53.86 0 0 1-4.67 2.12 2.334 2.334 0 0 1-2.049-.167 2.356 2.356 0 0 1-1.131-1.723l-.14-1.07" stroke="#8AB6D4"/><path d="M130.088 135.802c1.693-3.994 4.456-6.99 8.29-8.99a.49.49 0 0 0-.01-.87c-4.094-2.007-6.92-5.14-8.48-9.4a.33.33 0 0 0-.61-.01c-1.834 4.506-5.057 7.603-9.67 9.29a.31.31 0 0 0-.01.58c4.33 1.63 8.28 4.66 9.62 9.35a.46.46 0 0 0 .87.05" stroke="#805539"/><path d="M462.748 116.342c-1.6 4.2-3.69 6.52-7.74 8.63-.454.233-.447.456.02.67 3.866 1.726 6.503 4.586 7.91 8.58.16.466.336.473.53.02 1.706-3.947 4.556-6.78 8.55-8.5a.378.378 0 0 0 .22-.33.353.353 0 0 0-.2-.33c-3.894-1.98-6.804-4.904-8.73-8.77-.207-.42-.394-.41-.56.03" stroke="#7F2A5F"/><path d="M455.368 198.812c-1.107 3.7-.214 6.816 2.68 9.35 8.8 7.72 22.42-2.35 14.81-12.27-2.1-2.74-5.14-3.854-9.12-3.34" stroke="#7F3C38"/><path d="M463.738 192.552c-3.52.313-6.31 2.4-8.37 6.26" stroke="#80818F"/><path d="M463.738 192.552c1.066 1.386 1.453 3.066 1.16 5.04-.58 3.98-4.11 3.87-6.87 2.28a9.996 9.996 0 0 0-2.66-1.06" stroke="#FEBAA8"/><path d="M34.118 220.802a.108.108 0 0 0-.097-.065.083.083 0 0 0-.083.065c-2.01 5.77-8.27 11.12-13.89 13.27a.27.27 0 0 0 .02.52c6.453 1.786 10.976 5.76 13.57 11.92.2.466.403.47.61.01 2.566-5.634 6.803-9.4 12.71-11.3 1.186-.38 1.213-.827.08-1.34-5.974-2.7-10.28-7.06-12.92-13.08" stroke="#805539"/><path d="M429.058 260.262c-4.28 1.06-7.437 3.636-9.47 7.73" stroke="#80818F"/><path d="M419.588 267.992c-1.42 3.226-1.447 6.466-.08 9.72" stroke="#598184"/><path d="M419.508 277.712c4.65 9.87 17.31 11 23.71 2.74 2.913-3.76 3.516-7.887 1.81-12.38" stroke="#185187"/><path d="M445.028 268.072c-2.92-6.19-9.31-10.33-15.97-7.81" stroke="#1D718E"/><path d="M445.028 268.072c-3.64.026-7.064.55-10.27 1.57" stroke="#35BEF6"/><path d="M434.758 269.642c.07-2.56-.27-5.34-2.69-6.61" stroke="#76EEF3"/><path d="M432.068 263.032c-.48-1.627-1.484-2.55-3.01-2.77" stroke="#9DEFFE"/><path d="M434.758 269.642c-3.04 4.55-5.37 9.9-12.03 8.59a45.14 45.14 0 0 0-3.22-.52" stroke="#70CEEC"/><path d="M432.068 263.032c.17 4.31-4.46 8.14-8.62 5.92-1.4-.75-2.4-.82-3.86-.96" stroke="#D8FFF4"/><path d="M34.068 305.602c-1.434 4.193-4.204 7.146-8.31 8.86-.94.393-.944.796-.01 1.21 3.866 1.693 6.53 4.513 7.99 8.46.22.593.453.596.7.01 1.72-4.08 4.623-6.957 8.71-8.63.853-.347.85-.684-.01-1.01-4.274-1.627-7.22-4.597-8.84-8.91a.12.12 0 0 0-.23.01" stroke="#39765F"/><path d="M369.658 333.102c1.43-3.23 4.04-4.58 6.61-6.55.38-.287.353-.527-.08-.72-3.66-1.6-6.08-4.31-7.26-8.13-.28-.907-.604-.924-.97-.05-1.52 3.56-3.914 6.363-7.18 8.41a.47.47 0 0 0 .03.81c3.52 1.826 5.88 4.633 7.08 8.42.2.62.443.636.73.05a50.71 50.71 0 0 0 1.04-2.24" stroke="#7F2A5F"/><path d="M463.018 357.692c1.346-3.88 3.843-6.787 7.49-8.72a.64.64 0 0 0-.1-1.17c-3.89-1.3-5.48-3.56-7.56-7.72-.18-.36-.35-.357-.51.01-1.99 4.53-4.14 5.69-8.14 8.07-.394.233-.387.456.02.67 4.02 2.11 7.32 4.51 8.3 8.84a.26.26 0 0 0 .5.02" stroke="#39765F"/><path d="M74.208 377.822c-8.01 18.53-21.15 30.39-39.69 38.02" stroke="#80818F"/><path d="M34.518 415.842c-.614-.214-1.39.023-2.33.71-.3.213-.284.4.05.56 18.53 8.52 33.46 17.6 41.35 37.55.88 2.22 1.713 4.333 2.5 6.34.326.82.643.813.95-.02l2.5-6.79" stroke="#1D718E"/><path d="M79.538 454.192c9.466-18.047 23.636-30.33 42.51-36.85a.55.55 0 0 0-.03-1.05l-5.18-1.53" stroke="#185187"/><path d="M116.838 414.762c-15.59-6.77-27.9-16.86-35.14-32.03a121.562 121.562 0 0 1-4.89-11.76c-.114-.327-.224-.327-.33 0l-2.27 6.85" stroke="#1D718E"/><path d="M116.838 414.762c-6.034.253-11.62.57-16.76.95-11.72.87-23.03 9.03-23.85 21.48-.38 5.72.29 12.1 3.31 17" stroke="#35BEF6"/><path stroke="#9DEFFE" d="m34.518 415.841 11.84.99"/><path d="M46.358 416.832c6.92.53 17.97-1.07 22.84-6.65 3.053-3.494 5.286-7.04 6.7-10.64" stroke="#76EEF3"/><path d="M75.898 399.542c2.64-8.134 2.076-15.374-1.69-21.72" stroke="#9DEFFE"/><path d="M75.898 399.542c-4.04-1.067-6.704-.674-7.99 1.18a57.395 57.395 0 0 1-1.01 1.42 60.373 60.373 0 0 1-12.39 10.42c-1 .63-1.76 1.65-1.81 2.75a1.1 1.1 0 0 1-.99 1.04l-5.35.48" stroke="#D8FFF4"/><path stroke="#80818F" d="m351.258 413.621-3.77 1.52"/><path d="m347.488 415.142-4.64 1.31c-.887.253-.894.533-.02.84 6.19 2.19 12.85 4.74 18.26 7.99 13.51 8.13 22.11 19.39 28.91 33.39" stroke="#805539"/><path d="m389.998 458.672.74 2.54c.546 1.88.983 1.856 1.31-.07.55-3.28 2.51-6.73 3.92-9.73 7.52-15.91 25.39-28.43 41.67-33.84.68-.227.686-.474.02-.74-1.734-.694-2.987-.967-3.76-.82" stroke="#751F51"/><path d="M433.898 416.012c-10.787-4.647-19.8-10.894-27.04-18.74-5.474-5.927-9.697-12.67-12.67-20.23" stroke="#805539"/><path d="m394.188 377.042-2.24-6.77c-.494-1.474-.904-1.45-1.23.07-.96 4.42-2.8 8.653-5.52 12.7" stroke="#7F2A5F"/><path d="M394.188 377.042c-.78 1.873-1.07 3.79-.87 5.75 1.22 12.14-3.05 25.65-14.07 31.7-1.14.626-1.917.606-2.33-.06" stroke="#FF7C78"/><path d="M433.898 416.012c-8.68-1.027-16.76-.79-24.24.71-7.16 1.44-12.45 4.9-16.43 10.74-5.3 7.75-3.52 16.64-1.97 25.19.466 2.613.046 4.62-1.26 6.02" stroke="#F5716B"/><path d="M347.488 415.142c1.686 1.246 3.823 1.43 6.41.55" stroke="#FFD3A9"/><path stroke="#80818F" d="m202.248 435.751-1.91 2.34"/><path d="M200.338 438.092c-1.72 3.22-.74 6.49 1.92 8.79 4.12 3.56 9.56 1.97 12.34-2.01 3.38-4.84-1.08-9.49-5.64-10.98-2.06-.68-4.297-.06-6.71 1.86" stroke="#1D718E"/><path d="M200.338 438.092c.673 2 2.26 2.976 4.76 2.93 4.32-.07 4.05-6.31.59-6.2-1.17.03-2.07.83-3.44.93" stroke="#9DEFFE"/><path d="M20.218 54.982c14.3-1.07 31.72-9.4 39.01-21.79 5.55-9.43 7.51-19.74 10.59-28.16 1.52-4.16 6.17-6.19 10.14-4.35 2.65 1.23 3.25 3.51 4.19 6.16 5.8 16.4 8.61 31.48 25.17 40.9 6.66 3.786 14.136 6.17 22.43 7.15 2.986.353 4.85.696 5.59 1.03 4.03 1.81 4.58 8.14 1 10.66-.987.693-2.747 1.263-5.28 1.71-18.5 3.27-35 10.15-42.81 29.36-2.194 5.4-4.41 11.776-6.65 19.13-2.44 8-13.04 6.78-14.8-.72-2.067-8.78-4.66-16.2-7.78-22.26-5.68-11.02-19.17-19.75-31.22-22.89-3.187-.827-6.4-1.547-9.64-2.16-3.447-.654-5.657-1.327-6.63-2.02-4.18-2.97-2.65-8.83 2.02-10.98.72-.334 2.276-.59 4.67-.77Zm52.68-21.31c-5.43 12.42-14.1 20.35-26.31 25.66a120.474 120.474 0 0 0-5.51 2.58c5.126 2.34 9.82 4.936 14.08 7.79 9.133 6.12 15.703 14.513 19.71 25.18-.087 1.313.343 2.803 1.29 4.47.353.633.626.6.82-.1 4.573-16.567 14.68-28.47 30.32-35.71l3.34-1.5c.486-.214.48-.417-.02-.61-17.65-6.77-28.73-19.68-33.82-37.83a.13.13 0 0 0-.25 0l-3.65 10.07Zm191.479-4.6c-.673 13.746-12.84 24.32-27.176 23.62-6.885-.337-13.36-3.282-18-8.188-4.64-4.906-7.065-11.371-6.742-17.972.672-13.747 12.84-24.321 27.176-23.62 6.884.336 13.359 3.282 18 8.187 4.64 4.906 7.064 11.371 6.742 17.973Zm-28.81-13.45c-4.266.586-7.38 2.81-9.34 6.67-2.5 4.093-2.056 8.34 1.33 12.74 5.58 6.56 14.75 7.32 20.75 1.25 2.827-2.86 3.907-6.374 3.24-10.54-2.293-7.64-7.62-11.014-15.98-10.12Z" fill="#00031F" fill-rule="nonzero"/><ellipse fill="#00031F" fill-rule="nonzero" transform="rotate(-6.3 377.818 9.852)" cx="377.818" cy="9.852" rx="7.28" ry="6.87"/><path d="M393.118 48.002c10.62-6.3 17.56-15.457 20.82-27.47 1.166-4.3 2.29-8.637 3.37-13.01.6-2.45 3.35-4.05 5.85-4.14 3.22-.12 5.28 1.426 6.18 4.64 2.713 9.713 4.736 16.21 6.07 19.49 6.56 16.14 20.29 24.79 37.43 27.28 2.66.386 4.473.96 5.44 1.72 4.64 3.68 1.23 10.9-4.53 11.53-8.65.93-17.47 3.29-24.59 7.98-12.86 8.47-15.56 19.66-19.83 33.78-2.19 7.24-10.62 5.69-12.6-.71a981.456 981.456 0 0 0-3.59-11.4c-5.98-18.68-20.23-26.49-38.42-29.53-2.794-.46-4.687-1.064-5.68-1.81-3.51-2.63-2.83-7.97.86-10.48.886-.607 2.676-1.114 5.37-1.52a48.79 48.79 0 0 0 17.85-6.35Zm25.75-8.63c-4.254 8.18-10.617 14.42-19.09 18.72-1.46.94-2.987 1.59-4.58 1.95-1.46.326-1.484.746-.07 1.26 11.3 4.053 19.996 11.716 26.09 22.99l1.71 4.4c.36.94.663.92.91-.06 3.19-12.63 14.18-20.69 24.93-26.56l2.53-.72a.48.48 0 0 0 .05-.91c-11.847-5.04-20.48-13.327-25.9-24.86-.7-1.49-1.22-3.53-1.92-5.28-.187-.467-.38-.474-.58-.02l-4.08 9.09Z" fill="#00031F" fill-rule="nonzero"/><path d="M251.548 25.742c-4.94-.76-8.187-.837-9.74-.23-2.39.93-5.62 5.66-7.72 7.63-.24.226-.52.38-.84.46l-5.69 1.43c-3.387-4.4-3.83-8.647-1.33-12.74 1.793 2.986 4.243 3.846 7.35 2.58 2.12-.86 4.03-3.04 3.8-5.34-.154-1.487-.757-2.79-1.81-3.91 8.36-.894 13.686 2.48 15.98 10.12Z" fill="#FFA752" fill-rule="nonzero"/><path d="M235.568 15.622c1.053 1.12 1.656 2.423 1.81 3.91.23 2.3-1.68 4.48-3.8 5.34-3.107 1.266-5.557.406-7.35-2.58 1.96-3.86 5.073-6.084 9.34-6.67Z" fill="#FFF" fill-rule="nonzero"/><ellipse fill="#00031F" fill-rule="nonzero" transform="rotate(-12.4 151.817 30.012)" cx="151.817" cy="30.012" rx="7.36" ry="7.16"/><path d="M107.298 63.542c-.287-1.56-1.19-2.457-2.71-2.69-12.74-1.9-25.11 2.56-28.76 15.98-.534 1.946-.814 4.94-.84 8.98-.02 2.926-.06 5.95-.12 9.07-4.007-10.667-10.577-19.06-19.71-25.18-4.26-2.854-8.954-5.45-14.08-7.79 1.76.113 3.273.113 4.54 0 4.96-.43 9.61.09 14.61-.88 2.82-.55 4.78-2.55 7.95-3.1a1.71 1.71 0 0 0 .84-.42c3.233-2.887 5.166-4.87 5.8-5.95 2.9-4.93 4.87-15.09-1.92-17.89l3.65-10.07a.13.13 0 0 1 .25 0c5.09 18.15 16.17 31.06 33.82 37.83.5.193.506.396.02.61l-3.34 1.5Z" fill="#71E89E" fill-rule="nonzero"/><rect fill="#00031F" fill-rule="nonzero" transform="rotate(-.1 316.768 30.442)" x="294.778" y="24.542" width="43.98" height="11.8" rx="5.72"/><path d="M251.548 25.742c.666 4.166-.414 7.68-3.24 10.54-6 6.07-15.17 5.31-20.75-1.25l5.69-1.43c.32-.08.6-.234.84-.46 2.1-1.97 5.33-6.7 7.72-7.63 1.553-.607 4.8-.53 9.74.23Z" fill="#FD7450" fill-rule="nonzero"/><path d="M448.768 62.072c-.607-.134-1.054-.547-1.34-1.24a.93.93 0 0 0-.66-.54c-11.68-2.47-26.17 4.14-25.25 17.76.193 2.84.093 4.92-.3 6.24-6.094-11.274-14.79-18.937-26.09-22.99-1.414-.514-1.39-.934.07-1.26 1.593-.36 3.12-1.01 4.58-1.95 3.54 1.8 6.563 1.216 9.07-1.75a1.33 1.33 0 0 1 1.99-.05c2.12 2.293 4.496 2.406 7.13.34 5.94-4.66 7.34-8.47 5.54-15.34a.884.884 0 0 0-.456-.57.906.906 0 0 0-.734-.04c-1.094.42-2.244-.017-3.45-1.31l4.08-9.09c.2-.454.393-.447.58.02.7 1.75 1.22 3.79 1.92 5.28 5.42 11.533 14.053 19.82 25.9 24.86a.48.48 0 0 1-.05.91l-2.53.72Z" fill="#FE509E" fill-rule="nonzero"/><path d="M72.898 33.672c6.79 2.8 4.82 12.96 1.92 17.89-.634 1.08-2.567 3.063-5.8 5.95a1.71 1.71 0 0 1-.84.42c-3.17.55-5.13 2.55-7.95 3.1-5 .97-9.65.45-14.61.88-1.267.113-2.78.113-4.54 0a120.474 120.474 0 0 1 5.51-2.58c12.21-5.31 20.88-13.24 26.31-25.66Zm345.97 5.7c1.206 1.293 2.356 1.73 3.45 1.31a.906.906 0 0 1 .734.04.884.884 0 0 1 .456.57c1.8 6.87.4 10.68-5.54 15.34-2.634 2.066-5.01 1.953-7.13-.34a1.33 1.33 0 0 0-1.99.05c-2.507 2.966-5.53 3.55-9.07 1.75 8.473-4.3 14.836-10.54 19.09-18.72Z" fill="#FFF" fill-rule="nonzero"/><path d="M448.768 62.072c-10.75 5.87-21.74 13.93-24.93 26.56-.247.98-.55 1-.91.06l-1.71-4.4c.393-1.32.493-3.4.3-6.24-.92-13.62 13.57-20.23 25.25-17.76a.93.93 0 0 1 .66.54c.286.693.733 1.106 1.34 1.24Z" fill="#EA3B83" fill-rule="nonzero"/><path d="M107.298 63.542c-15.64 7.24-25.747 19.143-30.32 35.71-.194.7-.467.733-.82.1-.947-1.667-1.377-3.157-1.29-4.47.06-3.12.1-6.144.12-9.07.026-4.04.306-7.034.84-8.98 3.65-13.42 16.02-17.88 28.76-15.98 1.52.233 2.423 1.13 2.71 2.69Z" fill="#36A49D" fill-rule="nonzero"/><path d="M161.198 154.172a7544.552 7544.552 0 0 0 52.02-50.23c25.29-24.67 63.21-33.06 97.33-26.92 34.58 6.23 66.95 26.79 83.95 57.53 13.3 24.04 18.49 53.41 12.14 80.26-4.95 20.94-13.53 38.86-29.09 54.2-20.86 20.56-41.86 40.23-62.66 60.46-12.51 12.17-27.98 26.44-38 36.14-6.15 5.94-11.88 10.59-19.63 14.35-10.974 5.326-22.537 8.953-34.69 10.88-45.01 7.14-95.83-13.32-120.75-52.03-19.31-29.99-24.89-65.28-13.31-99.58 2.546-7.567 5.793-14.507 9.74-20.82 2.746-4.407 6.976-9.534 12.69-15.38 11.1-11.37 23.17-22.24 34.13-33.14a1156.765 1156.765 0 0 1 16.13-15.72Zm36.98 28.26 8.58 7.91 9.97 9.46a.64.64 0 0 0 .9-.01 3049.94 3049.94 0 0 1 25.98-25.71c5.873-5.747 10.306-9.647 13.3-11.7 22.39-15.4 53.36-11.56 68.38 12.21 6.193 12.106 7.056 24.48 2.59 37.12-1.494 4.12-3.174 7.533-5.04 10.24-2.034 2.893-3.47 4.743-4.31 5.55a15411.643 15411.643 0 0 1-33.71 32.29c-2.434 2.32-4.9 4.546-7.4 6.68-.227.193-.234.39-.02.59l10.19 9.57 8.94 8.46 10.73 9.75a.84.84 0 0 0 1.14-.02c5.42-5.23 10.87-11.14 15.92-16a2887.333 2887.333 0 0 0 33.26-32.53c14.09-13.99 22.04-36.32 21.21-56.03.38-25.33-10.44-49.11-30.22-64.94-7.174-5.747-14.7-10.32-22.58-13.72-15.79-6.51-31.42-8.3-46.92-6.72-14.41 1.46-32.48 7.69-43.45 18.21a6256.642 6256.642 0 0 1-48.95 46.46c-.727.686-.727 1.37 0 2.05l11.51 10.83Zm-84.49 78.01-1.15 15.63c.2 25.83 11.3 49.04 31.19 65.57 8.533 7.1 16.863 12.196 24.99 15.29 22.96 8.73 53.33 8.84 76.1-3.32 6.76-3.61 12.55-8.6 18.05-14.02a4044.244 4044.244 0 0 1 34.38-33.44.415.415 0 0 0 .127-.299.395.395 0 0 0-.127-.291l-10.12-9.63-7.97-7.45-11.17-10.65a.64.64 0 0 0-.9.01 556.451 556.451 0 0 1-17.56 17.25c-11.99 11.29-19.48 18.18-34.08 20.6l-16.15.28-11.01-2.76c-16.89-6.83-28.04-21.53-27.85-40.18.16-16.16 8.89-26.66 19.87-37.25a8020.023 8020.023 0 0 0 25.42-24.63.275.275 0 0 0 .087-.202.295.295 0 0 0-.087-.208l-9.13-9.11-8.71-8.05-11.62-11.66c-.247-.247-.494-.25-.74-.01a5946.306 5946.306 0 0 1-35.49 33.45c-6.514 6.08-11.064 10.923-13.65 14.53-6.48 9.046-10.714 19.23-12.7 30.55Zm160.74-74.23-65.28 62.54c-4.54 3.593-8.9 7.53-13.08 11.81-9.13 9.32-4.71 26.35 9.38 27.52 10.8.9 15.54-5.56 22-12.6 22.82-22.79 46.18-45.02 68.95-67.87 2.826-2.834 4.063-6.457 3.71-10.87-.047-1.834-.174-3.057-.38-3.67-2.71-8.25-10.98-12.86-19.4-10.18-2.627.833-4.594 1.94-5.9 3.32Z" fill="#000" fill-rule="nonzero"/><ellipse fill="#00031F" fill-rule="nonzero" transform="rotate(-1.1 162.178 84.262)" cx="162.178" cy="84.262" rx="7.19" ry="6.64"/><ellipse fill="#00031F" fill-rule="nonzero" transform="rotate(.1 192.148 84.392)" cx="192.148" cy="84.392" rx="6.98" ry="6.76"/><path d="M109.768 132.872c-4.82-1.39-6.73-8.17-2.4-11.27.606-.427 2.206-1.18 4.8-2.26 5.526-2.294 8.956-6.21 10.29-11.75.573-2.407 1.163-4.01 1.77-4.81 2.226-2.94 5.33-3.507 9.31-1.7 2.13.97 2.83 2.79 3.1 5.25.453 4.166 2.226 7.58 5.32 10.24 4.1 3.54 12.61 3.13 11.46 10.92-.394 2.646-1.93 4.32-4.61 5.02-4.787 1.246-8.12 3.84-10 7.78-1.44 3.03-2.19 9.16-6.8 10.85-3.094 1.133-5.68.563-7.76-1.71-.714-.787-1.354-2.227-1.92-4.32-1.68-6.22-5.867-10.3-12.56-12.24Zm20.32 2.93c1.693-3.994 4.456-6.99 8.29-8.99a.49.49 0 0 0-.01-.87c-4.094-2.007-6.92-5.14-8.48-9.4a.33.33 0 0 0-.61-.01c-1.834 4.506-5.057 7.603-9.67 9.29a.31.31 0 0 0-.01.58c4.33 1.63 8.28 4.66 9.62 9.35a.46.46 0 0 0 .87.05Zm325.65-26.05c.89-2.08.8-5.18 2.24-7.11 2.39-3.23 8.2-3.58 10.77-.53.5.586 1.14 2.303 1.92 5.15 1.353 4.946 4.276 8.603 8.77 10.97 5.4 2.86 9.88 4.79 6.11 11.54a1.607 1.607 0 0 1-.71.67 81.794 81.794 0 0 1-5.24 2.4c-6.88 2.86-7.78 7.55-9.93 13.49-1.54 4.27-7.9 5.23-11.02 2.27-2.19-2.07-2.84-6.7-4.08-9.32-2.19-4.63-5.52-5.56-9.7-7.23-3.59-1.43-5-3.1-4.49-7 .24-1.84 1.036-3.18 2.39-4.02 5.22-3.24 10.36-5.16 12.97-11.28Zm7.01 6.59c-1.6 4.2-3.69 6.52-7.74 8.63-.454.233-.447.456.02.67 3.866 1.726 6.503 4.586 7.91 8.58.16.466.336.473.53.02 1.706-3.947 4.556-6.78 8.55-8.5a.378.378 0 0 0 .22-.33.353.353 0 0 0-.2-.33c-3.894-1.98-6.804-4.904-8.73-8.77-.207-.42-.394-.41-.56.03Z" fill="#00031F" fill-rule="nonzero"/><path d="M325.988 111.602a149.92 149.92 0 0 1-3.49 13.59c-.787 2.56-.23 4.396 1.67 5.51 5.386 3.153 10.113 6.336 14.18 9.55 15.42 12.18 23.22 31.13 23.48 50.73-.047 9.42-1.73 18.626-5.05 27.62a11.14 11.14 0 0 1-2.53-.75c-3.76-1.6-13.8.36-10.38-7.76 3.84-12.46 3.42-27.54-1.94-39.59-5.04-10.734-12.537-18.844-22.49-24.33-20.294-11.187-41.45-11.777-63.47-1.77l2.67-6.75a1.32 1.32 0 0 0 0-.99c-1.37-3.41-6.47-7.36-10-4.03-16.3 15.36-32.92 30.47-48.89 46.18-1.19 1.16-1.29 2.04-1.57 3.62l-11.51-10.83c-.727-.68-.727-1.364 0-2.05a6256.642 6256.642 0 0 0 48.95-46.46c10.97-10.52 29.04-16.75 43.45-18.21 15.5-1.58 31.13.21 46.92 6.72Z" fill="#FFF" fill-rule="nonzero"/><path d="M325.988 111.602c7.88 3.4 15.406 7.973 22.58 13.72 19.78 15.83 30.6 39.61 30.22 64.94-.42.033-.684.263-.79.69-.067.286-.247.43-.54.43a1.8 1.8 0 0 0-.63.11 1.81 1.81 0 0 1-.94.07 21.6 21.6 0 0 0-4.99-.32c-1.77.1-3.81-.65-5.58-1.39-1.72-.72-2.884-.344-3.49 1.13-.26-19.6-8.06-38.55-23.48-50.73-4.067-3.214-8.794-6.397-14.18-9.55-1.9-1.114-2.457-2.95-1.67-5.51a149.92 149.92 0 0 0 3.49-13.59Z" fill="#A0CADF" fill-rule="nonzero"/><path d="M455.008 124.972c4.05-2.11 6.14-4.43 7.74-8.63.166-.44.353-.45.56-.03 1.926 3.866 4.836 6.79 8.73 8.77.126.06.203.189.2.33a.378.378 0 0 1-.22.33c-3.994 1.72-6.844 4.553-8.55 8.5-.194.453-.37.446-.53-.02-1.407-3.994-4.044-6.854-7.91-8.58-.467-.214-.474-.437-.02-.67Z" fill="#FE509E" fill-rule="nonzero"/><path d="M130.088 135.802a.46.46 0 0 1-.87-.05c-1.34-4.69-5.29-7.72-9.62-9.35a.31.31 0 0 1 .01-.58c4.613-1.687 7.836-4.784 9.67-9.29a.33.33 0 0 1 .61.01c1.56 4.26 4.386 7.393 8.48 9.4a.49.49 0 0 1 .01.87c-3.834 2-6.597 4.996-8.29 8.99Z" fill="#FFA752" fill-rule="nonzero"/><path d="M255.968 144.402c-4.514 2.926-7.8 5.403-9.86 7.43-13.02 12.87-26.94 25.06-39.35 38.51l-8.58-7.91c.28-1.58.38-2.46 1.57-3.62 15.97-15.71 32.59-30.82 48.89-46.18 3.53-3.33 8.63.62 10 4.03a1.32 1.32 0 0 1 0 .99l-2.67 6.75Z" fill="#CEEEF0" fill-rule="nonzero"/><rect fill="#00031F" fill-rule="nonzero" transform="rotate(.7 25.498 138.392)" x="7.108" y="132.542" width="36.78" height="11.7" rx="5.66"/><path d="m341.928 170.502-.02 3.94c0 .333-.167.503-.5.51a70.553 70.553 0 0 1-4.6-.01c-1.69-.05-3.08-.82-4.88-.92-.3-.02-.597.013-.89.1-.527.153-1 .08-1.42-.22a1.31 1.31 0 0 0-.78-.25h-2a.58.58 0 0 0-.56.35c-.187.386-.517.583-.99.59-15.02-23.77-45.99-27.61-68.38-12.21-2.994 2.053-7.427 5.953-13.3 11.7a3049.94 3049.94 0 0 0-25.98 25.71.64.64 0 0 1-.9.01l-9.97-9.46c12.41-13.45 26.33-25.64 39.35-38.51 2.06-2.027 5.346-4.504 9.86-7.43 22.02-10.007 43.176-9.417 63.47 1.77 9.953 5.486 17.45 13.596 22.49 24.33Z" fill="#73A1C9" fill-rule="nonzero"/><ellipse fill="#00031F" fill-rule="nonzero" transform="rotate(-.8 99.408 173.852)" cx="99.408" cy="173.852" rx="6.86" ry="6.6"/><ellipse fill="#00031F" fill-rule="nonzero" transform="rotate(-.2 63.908 174.492)" cx="63.908" cy="174.492" rx="6.79" ry="6.5"/><path d="M341.928 170.502c5.36 12.05 5.78 27.13 1.94 39.59l-2.35.48a4.411 4.411 0 0 0-.91.3c-1.21.56-2.95.22-4.11.41-2.787.466-5.66.61-8.62.43 4.466-12.64 3.603-25.014-2.59-37.12.473-.007.803-.204.99-.59a.58.58 0 0 1 .56-.35h2c.286 0 .546.083.78.25.42.3.893.373 1.42.22.293-.087.59-.12.89-.1 1.8.1 3.19.87 4.88.92 1.533.053 3.066.056 4.6.01.333-.007.5-.177.5-.51l.02-3.94Z" fill="#A0CADF" fill-rule="nonzero"/><path d="M472.168 181.482c19.29 8.84 20.46 30.88.62 40.03-1.82.84-1.29 3.34-1.97 4.72-1.634 3.36-4.377 4.2-8.23 2.52-2.9-1.27-2.58-3.07-3.24-5.64a1.205 1.205 0 0 0-.58-.75c-1.76-.987-3.504-1.98-5.23-2.98-17.54-10.11-12.41-32.31 5.39-38.07.32-.107.553-.31.7-.61.71-1.48.91-3.32 1.94-4.42 2.06-2.17 6.03-1.96 7.99.2.98 1.09 1.24 2.89 1.95 4.35.14.3.36.516.66.65Zm-16.8 17.33c-1.107 3.7-.214 6.816 2.68 9.35 8.8 7.72 22.42-2.35 14.81-12.27-2.1-2.74-5.14-3.854-9.12-3.34-3.52.313-6.31 2.4-8.37 6.26Z" fill="#00031F" fill-rule="nonzero"/><path d="M187.888 193.582a108.33 108.33 0 0 0-14.61 12.16 5653.79 5653.79 0 0 1-34.89 34.37c-2.9 2.83-3.77 6.19-1.22 9.6 2.48 3.326 6.36 3.826 11.64 1.5-3.86 7.793-5.56 15.57-5.1 23.33-1.13 14.73 7.23 32.34 17.91 42.13 2.36 2.17 20.16 15.03 22.07 9.99 1.08-2.83-.92-6.06.71-9.13.9-1.7 2.196-3.14 3.89-4.32l11.01 2.76c-2.427.733-1.5 2.03 2.78 3.89 4.46 1.93 12.86 4.21 18.2 2.41a1.865 1.865 0 0 0 1.22-2.22c-.807-3.187-2.824-4.64-6.05-4.36 14.6-2.42 22.09-9.31 34.08-20.6a556.451 556.451 0 0 0 17.56-17.25.64.64 0 0 1 .9-.01l11.17 10.65a53.973 53.973 0 0 0-9.53 7.62 751.904 751.904 0 0 1-26.47 25.29c-5.514 5.02-12.267 8.553-20.26 10.6-5.27 1.35-16.22-.21-18.77 5.39-1.294 2.853-.294 5.946 3 9.28-22.28 1.206-41.04-5.18-56.28-19.16-12.98-11.91-22.84-31.51-23.1-50.16.046-3.507.04-7.034-.02-10.58-.067-3.827-2.13-5.917-6.19-6.27-3.054-.26-5.67-.277-7.85-.05 1.986-11.32 6.22-21.504 12.7-30.55 2.586-3.607 7.136-8.45 13.65-14.53a5946.306 5946.306 0 0 0 35.49-33.45c.246-.24.493-.237.74.01l11.62 11.66Z" fill="#FFF" fill-rule="nonzero"/><path d="M274.428 186.212c-.7 6.533 1.8 10.6 7.5 12.2 6.66 1.87 12.26 3.53 18.18-1.67.353 4.413-.884 8.036-3.71 10.87-22.77 22.85-46.13 45.08-68.95 67.87.22-1.794-.517-3.254-2.21-4.38-2.22-1.467-4.004-3.004-5.35-4.61-3.47-4.13-.19-9.33-2.82-13.46-1.507-2.36-4.147-3.787-7.92-4.28l65.28-62.54Z" fill="#FFF" fill-rule="nonzero"/><path d="M378.788 190.262c.83 19.71-7.12 42.04-21.21 56.03a2887.333 2887.333 0 0 1-33.26 32.53c-5.05 4.86-10.5 10.77-15.92 16a.84.84 0 0 1-1.14.02l-10.73-9.75a3016.069 3016.069 0 0 1 42.62-41.22c7.43-7.05 14.14-15.58 17.63-25.27 3.32-8.994 5.003-18.2 5.05-27.62.606-1.474 1.77-1.85 3.49-1.13 1.77.74 3.81 1.49 5.58 1.39a21.6 21.6 0 0 1 4.99.32c.32.06.633.036.94-.07.2-.074.41-.11.63-.11.293 0 .473-.144.54-.43.106-.427.37-.657.79-.69Z" fill="#73A1C9" fill-rule="nonzero"/><path d="M463.738 192.552c1.066 1.386 1.453 3.066 1.16 5.04-.58 3.98-4.11 3.87-6.87 2.28a9.996 9.996 0 0 0-2.66-1.06c2.06-3.86 4.85-5.947 8.37-6.26Z" fill="#FFF" fill-rule="nonzero"/><path d="M463.738 192.552c3.98-.514 7.02.6 9.12 3.34 7.61 9.92-6.01 19.99-14.81 12.27-2.894-2.534-3.787-5.65-2.68-9.35.94.226 1.826.58 2.66 1.06 2.76 1.59 6.29 1.7 6.87-2.28.293-1.974-.094-3.654-1.16-5.04Z" fill="#FD7450" fill-rule="nonzero"/><path d="m187.888 193.582 8.71 8.05c-.7.613-1.497 1.226-2.39 1.84a27.74 27.74 0 0 0-3.83 3.13c-11.91 11.68-24.24 22.9-35.81 34.93-2.027 2.106-3.947 5.333-5.76 9.68-5.28 2.326-9.16 1.826-11.64-1.5-2.55-3.41-1.68-6.77 1.22-9.6a5653.79 5653.79 0 0 0 34.89-34.37 108.33 108.33 0 0 1 14.61-12.16Z" fill="#CEEEF0" fill-rule="nonzero"/><path d="M25.738 255.482c-3.17-8.75-10.08-11.98-18.6-14.04-2.854-.687-4.644-1.35-5.37-1.99-3.77-3.3-1-10.64 3.53-11.52 10.05-1.94 17.71-6.66 20.81-16.86 1.43-4.72 2.68-10.64 9.09-9.89 3.08.35 4.84 2.61 5.74 5.39 2.61 8.03 4.64 14.07 12.64 18.16 3.26 1.66 9.13 2.66 11.32 4.88 2.71 2.74 2.22 7.97-.63 10.54-.707.633-2.187 1.213-4.44 1.74-7.41 1.71-13.45 5.38-16.7 12.28-2.06 4.37-1.66 11.56-8.25 12.13-6.62.57-7.4-6.03-9.14-10.82Zm8.38-34.68a.108.108 0 0 0-.097-.065.083.083 0 0 0-.083.065c-2.01 5.77-8.27 11.12-13.89 13.27a.27.27 0 0 0 .02.52c6.453 1.786 10.976 5.76 13.57 11.92.2.466.403.47.61.01 2.566-5.634 6.803-9.4 12.71-11.3 1.186-.38 1.213-.827.08-1.34-5.974-2.7-10.28-7.06-12.92-13.08Z" fill="#00031F" fill-rule="nonzero"/><path d="m196.598 201.632 9.13 9.11c.055.055.087.13.087.208 0 .077-.032.15-.087.202a8020.023 8020.023 0 0 1-25.42 24.63c-10.98 10.59-19.71 21.09-19.87 37.25-.334.393-.81.103-1.43-.87-.194-.3-.464-.42-.81-.36-2.91.49-4.54 2.58-6.5 3.58a53.861 53.861 0 0 1-4.67 2.12 2.334 2.334 0 0 1-2.049-.167 2.356 2.356 0 0 1-1.131-1.723l-.14-1.07c-.46-7.76 1.24-15.537 5.1-23.33 1.813-4.347 3.733-7.574 5.76-9.68 11.57-12.03 23.9-23.25 35.81-34.93a27.74 27.74 0 0 1 3.83-3.13 25.698 25.698 0 0 0 2.39-1.84Z" fill="#73A1C9" fill-rule="nonzero"/><path d="M343.868 210.092c-3.42 8.12 6.62 6.16 10.38 7.76.846.36 1.69.61 2.53.75-3.49 9.69-10.2 18.22-17.63 25.27-14.3 13.56-28.507 27.3-42.62 41.22l-8.94-8.46 43.86-43.08a.92.92 0 0 0-.27-1.49c-4.054-1.84-6.834-5.21-8.34-10.11 1.866-2.707 3.546-6.12 5.04-10.24 2.96.18 5.833.036 8.62-.43 1.16-.19 2.9.15 4.11-.41.293-.134.596-.234.91-.3l2.35-.48Z" fill="#CEEEF0" fill-rule="nonzero"/><path d="M34.118 220.802c2.64 6.02 6.946 10.38 12.92 13.08 1.133.513 1.106.96-.08 1.34-5.907 1.9-10.144 5.666-12.71 11.3-.207.46-.41.456-.61-.01-2.594-6.16-7.117-10.134-13.57-11.92a.27.27 0 0 1-.02-.52c5.62-2.15 11.88-7.5 13.89-13.27a.083.083 0 0 1 .083-.065c.04 0 .08.026.097.065Z" fill="#FFA752" fill-rule="nonzero"/><path d="M322.838 221.952c1.506 4.9 4.286 8.27 8.34 10.11a.92.92 0 0 1 .27 1.49l-43.86 43.08-10.19-9.57c-.214-.2-.207-.397.02-.59 2.5-2.134 4.966-4.36 7.4-6.68a15567.16 15567.16 0 0 0 33.71-32.29c.84-.807 2.276-2.657 4.31-5.55Z" fill="#FFF" fill-rule="nonzero"/><path d="M458.277 273.03c-.059 6.664-2.871 13.032-7.82 17.702-4.949 4.67-11.628 7.26-18.568 7.199-14.453-.126-26.071-11.48-25.95-25.357.058-6.665 2.87-13.033 7.82-17.703 4.948-4.67 11.627-7.259 18.568-7.198 14.452.126 26.07 11.478 25.95 25.357Zm-29.22-12.768c-4.28 1.06-7.436 3.636-9.47 7.73-1.42 3.226-1.446 6.466-.08 9.72 4.65 9.87 17.31 11 23.71 2.74 2.914-3.76 3.517-7.887 1.81-12.38-2.92-6.19-9.31-10.33-15.97-7.81Z" fill="#00031F" fill-rule="nonzero"/><path d="M445.028 268.072c-3.64.026-7.064.55-10.27 1.57.07-2.56-.27-5.34-2.69-6.61-.48-1.627-1.484-2.55-3.01-2.77 6.66-2.52 13.05 1.62 15.97 7.81Z" fill="#3ADEFD" fill-rule="nonzero"/><path d="m127.748 277.342-5.61-.29a.455.455 0 0 1-.28-.12c-.407-.38-.8-.337-1.18.13a1.175 1.175 0 0 1-1.14.41l-7-1.4 1.15-15.63c2.18-.227 4.796-.21 7.85.05 4.06.353 6.123 2.443 6.19 6.27.06 3.546.066 7.073.02 10.58Z" fill="#CEEEF0" fill-rule="nonzero"/><path d="M429.058 260.262c1.526.22 2.53 1.143 3.01 2.77.17 4.31-4.46 8.14-8.62 5.92-1.4-.75-2.4-.82-3.86-.96 2.033-4.094 5.19-6.67 9.47-7.73Z" fill="#FFF" fill-rule="nonzero"/><path d="M432.068 263.032c2.42 1.27 2.76 4.05 2.69 6.61-3.04 4.55-5.37 9.9-12.03 8.59a45.14 45.14 0 0 0-3.22-.52c-1.367-3.254-1.34-6.494.08-9.72 1.46.14 2.46.21 3.86.96 4.16 2.22 8.79-1.61 8.62-5.92Z" fill="#B1FEE8" fill-rule="nonzero"/><path d="M445.028 268.072c1.706 4.493 1.103 8.62-1.81 12.38-6.4 8.26-19.06 7.13-23.71-2.74a45.14 45.14 0 0 1 3.22.52c6.66 1.31 8.99-4.04 12.03-8.59 3.206-1.02 6.63-1.544 10.27-1.57Z" fill="#2F9EEF" fill-rule="nonzero"/><path d="M160.438 273.032c-.19 18.65 10.96 33.35 27.85 40.18-1.694 1.18-2.99 2.62-3.89 4.32-1.63 3.07.37 6.3-.71 9.13-1.91 5.04-19.71-7.82-22.07-9.99-10.68-9.79-19.04-27.4-17.91-42.13l.14 1.07c.092.718.51 1.354 1.131 1.723.622.37 1.377.431 2.049.167a53.861 53.861 0 0 0 4.67-2.12c1.96-1 3.59-3.09 6.5-3.58.346-.06.616.06.81.36.62.973 1.096 1.263 1.43.87Z" fill="#A0CADF" fill-rule="nonzero"/><path d="M127.748 277.342c.26 18.65 10.12 38.25 23.1 50.16 15.24 13.98 34 20.366 56.28 19.16 7.846-.1 15.633-1.324 23.36-3.67 9.8-2.98 16.99-8.65 24.41-15.87a9251.375 9251.375 0 0 1 32.23-31.19l10.12 9.63c.08.074.127.18.127.291 0 .112-.046.22-.127.299-11.5 11.053-22.96 22.2-34.38 33.44-5.5 5.42-11.29 10.41-18.05 14.02-22.77 12.16-53.14 12.05-76.1 3.32-8.127-3.094-16.457-8.19-24.99-15.29-19.89-16.53-30.99-39.74-31.19-65.57l7 1.4c.424.085.863-.073 1.14-.41.38-.467.773-.51 1.18-.13a.455.455 0 0 0 .28.12l5.61.29Z" fill="#73A1C9" fill-rule="nonzero"/><ellipse fill="#00031F" fill-rule="nonzero" transform="rotate(.5 488.718 289.832)" cx="488.718" cy="289.832" rx="7.29" ry="6.86"/><path d="m279.158 288.482 7.97 7.45a9251.375 9251.375 0 0 0-32.23 31.19c-7.42 7.22-14.61 12.89-24.41 15.87-7.727 2.346-15.514 3.57-23.36 3.67-3.294-3.334-4.294-6.427-3-9.28 2.55-5.6 13.5-4.04 18.77-5.39 7.993-2.047 14.746-5.58 20.26-10.6a751.904 751.904 0 0 0 26.47-25.29 53.973 53.973 0 0 1 9.53-7.62Z" fill="#CEEEF0" fill-rule="nonzero"/><path d="M42.408 299.262c1.93 9.57 15.21 7.53 15.37 15.78.07 3.33-1.23 4.59-4.23 6.02-4.18 1.99-7.59 3.2-10.18 7.32-1.43 2.29-1.55 5.47-2.63 7.58-2.46 4.85-9.14 5.62-12.21 1.3-.454-.64-.997-2.25-1.63-4.83-1.074-4.414-3.787-7.65-8.14-9.71-4.53-2.13-9.67-3.85-7.18-10.21.286-.734 1.386-1.617 3.3-2.65 5.49-2.97 9.97-4.28 12.05-10.91 1.24-3.93 2.74-7.92 7.61-8.2 5.17-.3 7.01 4.2 7.87 8.51Zm-8.34 6.34c-1.434 4.193-4.204 7.146-8.31 8.86-.94.393-.944.796-.01 1.21 3.866 1.693 6.53 4.513 7.99 8.46.22.593.453.596.7.01 1.72-4.08 4.623-6.957 8.71-8.63.853-.347.85-.684-.01-1.01-4.274-1.627-7.22-4.597-8.84-8.91a.12.12 0 0 0-.23.01Zm319.2 28.77c-3.08-1.29-6.63-2.45-7.4-5.98-1.45-6.61 6.21-8.29 10.12-11.2 2.873-2.134 4.693-4.897 5.46-8.29 1.4-6.26 8.11-9.86 12.63-4.62 1.48 1.72 1.74 3.92 2.24 6.22 1.27 5.75 7.12 8.43 11.9 10.62 3.83 1.77 4.02 6.98 1.49 9.7-.654.7-1.94 1.356-3.86 1.97-6.68 2.14-8.47 6.14-10.52 12.47-1.6 4.92-5.93 6.88-10.78 4.51-2.47-1.2-2.97-4.32-3.71-6.76-1.21-3.96-3.72-7.04-7.57-8.64Zm16.39-1.27c1.43-3.23 4.04-4.58 6.61-6.55.38-.287.353-.527-.08-.72-3.66-1.6-6.08-4.31-7.26-8.13-.28-.907-.604-.924-.97-.05-1.52 3.56-3.914 6.363-7.18 8.41a.47.47 0 0 0 .03.81c3.52 1.826 5.88 4.633 7.08 8.42.2.62.443.636.73.05a50.71 50.71 0 0 0 1.04-2.24Z" fill="#00031F" fill-rule="nonzero"/><path d="M34.068 305.602a.12.12 0 0 1 .23-.01c1.62 4.313 4.566 7.283 8.84 8.91.86.326.863.663.01 1.01-4.087 1.673-6.99 4.55-8.71 8.63-.247.586-.48.583-.7-.01-1.46-3.947-4.124-6.767-7.99-8.46-.934-.414-.93-.817.01-1.21 4.106-1.714 6.876-4.667 8.31-8.86Z" fill="#71E89E" fill-rule="nonzero"/><path d="M369.658 333.102a50.71 50.71 0 0 1-1.04 2.24c-.287.586-.53.57-.73-.05-1.2-3.787-3.56-6.594-7.08-8.42a.47.47 0 0 1-.03-.81c3.266-2.047 5.66-4.85 7.18-8.41.366-.874.69-.857.97.05 1.18 3.82 3.6 6.53 7.26 8.13.433.193.46.433.08.72-2.57 1.97-5.18 3.32-6.61 6.55Z" fill="#FE509E" fill-rule="nonzero"/><ellipse fill="#00031F" fill-rule="nonzero" transform="rotate(5.6 422.668 324.772)" cx="422.668" cy="324.772" rx="7.11" ry="6.86"/><path d="M471.148 361.612c-1.17 2.55-1.25 6.22-2.85 8.4-2.32 3.18-7.48 3.55-10.22.8-1.95-1.97-2.29-5.64-3.34-7.99-2.37-5.36-7.07-6.69-12.2-8.28-1.047-.327-1.864-1.337-2.45-3.03-2.44-7.05 4.63-8.56 9.13-11.09 5.6-3.15 5.6-6.96 7.38-12.37 1.77-5.35 8.63-5.69 11.67-1.36 1.24 1.78 1.48 4.31 2.06 6.63 1.45 5.86 6.88 7.88 11.74 10.14 4.58 2.14 4.4 8.76-.2 10.67-4.66 1.93-8.79 3.3-10.72 7.48Zm-8.13-3.92c1.346-3.88 3.843-6.787 7.49-8.72a.64.64 0 0 0-.1-1.17c-3.89-1.3-5.48-3.56-7.56-7.72-.18-.36-.35-.357-.51.01-1.99 4.53-4.14 5.69-8.14 8.07-.394.233-.387.456.02.67 4.02 2.11 7.32 4.51 8.3 8.84a.26.26 0 0 0 .5.02Z" fill="#00031F" fill-rule="nonzero"/><path d="M463.018 357.692a.26.26 0 0 1-.5-.02c-.98-4.33-4.28-6.73-8.3-8.84-.407-.214-.414-.437-.02-.67 4-2.38 6.15-3.54 8.14-8.07.16-.367.33-.37.51-.01 2.08 4.16 3.67 6.42 7.56 7.72a.64.64 0 0 1 .1 1.17c-3.647 1.933-6.144 4.84-7.49 8.72Z" fill="#71E89E" fill-rule="nonzero"/><path d="M10.048 410.712c14.44-3.03 27.34-7.49 38.93-17.76 11.52-10.21 16.43-24.52 19.99-38.93.89-3.58 2.09-5.94 5.34-7.33 3.81-1.63 8.52.69 9.55 4.59a463.492 463.492 0 0 0 3.92 14c5.306 17.94 16.51 30.64 33.61 38.1 5.473 2.386 9.783 3.93 12.93 4.63 4.866 1.08 8.453 2.006 10.76 2.78 4.48 1.52 5.49 7.99 2.3 11.1-.927.9-2.674 1.64-5.24 2.22-16.53 3.7-31.44 8-42.82 21.48-7.27 8.62-11.28 19.09-14.63 29.75-.9 2.88-1.817 4.803-2.75 5.77-3.95 4.11-11.06 2.39-12.82-3.31a325.91 325.91 0 0 1-2.48-8.52c-6.32-22.9-24.45-38.09-47.12-43.5-3.32-.794-6.634-1.62-9.94-2.48-7.29-1.89-6.58-11.11.47-12.59Zm64.16-32.89c-8.01 18.53-21.15 30.39-39.69 38.02-.614-.214-1.39.023-2.33.71-.3.213-.284.4.05.56 18.53 8.52 33.46 17.6 41.35 37.55.88 2.22 1.713 4.333 2.5 6.34.326.82.643.813.95-.02l2.5-6.79c9.466-18.047 23.636-30.33 42.51-36.85a.55.55 0 0 0-.03-1.05l-5.18-1.53c-15.59-6.77-27.9-16.86-35.14-32.03a121.562 121.562 0 0 1-4.89-11.76c-.114-.327-.224-.327-.33 0l-2.27 6.85Zm390.46 44.07a5.417 5.417 0 0 1-2.88 1.49c-4.274.8-8.497 1.73-12.67 2.79-20.434 5.2-35.25 16.963-44.45 35.29-2.39 4.76-4.21 10.55-5.98 15.9-1.36 4.1-4.63 7.34-9.14 6.36-3.54-.77-5.3-4.6-6.48-8.31-3.81-11.94-10.47-25.18-20.16-33.47-9.147-7.827-19.627-13.027-31.44-15.6a767.624 767.624 0 0 0-10.87-2.28c-4.187-.854-6.177-3.244-5.97-7.17.24-4.54 3.83-5.93 8.08-6.81 10.186-2.087 18.713-4.794 25.58-8.12 14.406-6.98 24.743-18.457 31.01-34.43 1.02-2.614 2.876-7.934 5.57-15.96 2.26-6.76 11.84-7.18 13.79-.03a432.915 432.915 0 0 0 4.17 14.23c6.92 22.14 24.06 36.96 46.52 42.06 3.933.893 7.833 1.903 11.7 3.03 5.13 1.49 7.99 6.73 3.62 11.03Zm-79.47-38.85c-5.107 9.153-11.42 16.38-18.94 21.68-3.32 2.333-8.32 5.3-15 8.9l-3.77 1.52-4.64 1.31c-.887.253-.894.533-.02.84 6.19 2.19 12.85 4.74 18.26 7.99 13.51 8.13 22.11 19.39 28.91 33.39l.74 2.54c.546 1.88.983 1.856 1.31-.07.55-3.28 2.51-6.73 3.92-9.73 7.52-15.91 25.39-28.43 41.67-33.84.68-.227.686-.474.02-.74-1.734-.694-2.987-.967-3.76-.82-10.787-4.647-19.8-10.894-27.04-18.74-5.474-5.927-9.697-12.67-12.67-20.23l-2.24-6.77c-.494-1.474-.904-1.45-1.23.07-.96 4.42-2.8 8.653-5.52 12.7Z" fill="#00031F" fill-rule="nonzero"/><ellipse fill="#00031F" fill-rule="nonzero" transform="rotate(2.8 28.588 366.402)" cx="28.588" cy="366.402" rx="6.91" ry="6.54"/><ellipse fill="#00031F" fill-rule="nonzero" transform="rotate(26.1 335.637 366.882)" cx="335.637" cy="366.882" rx="7.03" ry="6.73"/><circle fill="#000" fill-rule="nonzero" cx="307.738" cy="367.082" r="6.85"/><path d="M394.188 377.042c-.78 1.873-1.07 3.79-.87 5.75 1.22 12.14-3.05 25.65-14.07 31.7-1.14.626-1.917.606-2.33-.06 2.08-3.23.39-4.78-1.74-7.02a.655.655 0 0 1-.03-.86c2.74-3.45 14.95-19.02 10.05-23.51 2.72-4.047 4.56-8.28 5.52-12.7.326-1.52.736-1.544 1.23-.07l2.24 6.77Z" fill="#FE509E" fill-rule="nonzero"/><path d="M116.838 414.762c-6.034.253-11.62.57-16.76.95-11.72.87-23.03 9.03-23.85 21.48-.38 5.72.29 12.1 3.31 17l-2.5 6.79c-.307.833-.624.84-.95.02-.787-2.007-1.62-4.12-2.5-6.34-7.89-19.95-22.82-29.03-41.35-37.55-.334-.16-.35-.347-.05-.56.94-.687 1.716-.924 2.33-.71l11.84.99c6.92.53 17.97-1.07 22.84-6.65 3.053-3.494 5.286-7.04 6.7-10.64 2.64-8.134 2.076-15.374-1.69-21.72l2.27-6.85c.106-.327.216-.327.33 0a121.562 121.562 0 0 0 4.89 11.76c7.24 15.17 19.55 25.26 35.14 32.03Z" fill="#3ADEFD" fill-rule="nonzero"/><path d="M394.188 377.042c2.973 7.56 7.196 14.303 12.67 20.23 7.24 7.846 16.253 14.093 27.04 18.74-8.68-1.027-16.76-.79-24.24.71-7.16 1.44-12.45 4.9-16.43 10.74-5.3 7.75-3.52 16.64-1.97 25.19.466 2.613.046 4.62-1.26 6.02-6.8-14-15.4-25.26-28.91-33.39-5.41-3.25-12.07-5.8-18.26-7.99-.874-.307-.867-.587.02-.84l4.64-1.31c1.686 1.246 3.823 1.43 6.41.55 4.586.993 9.05.623 13.39-1.11a.94.94 0 0 1 .89.09c3.113 2.073 6.026 1.993 8.74-.24.413.666 1.19.686 2.33.06 11.02-6.05 15.29-19.56 14.07-31.7-.2-1.96.09-3.877.87-5.75Z" fill="#FFA752" fill-rule="nonzero"/><path d="M74.208 377.822c3.766 6.346 4.33 13.586 1.69 21.72-4.04-1.067-6.704-.674-7.99 1.18a57.4 57.4 0 0 1-1.01 1.42 60.373 60.373 0 0 1-12.39 10.42c-1 .63-1.76 1.65-1.81 2.75a1.1 1.1 0 0 1-.99 1.04l-5.35.48-11.84-.99c18.54-7.63 31.68-19.49 39.69-38.02Z" fill="#FFF" fill-rule="nonzero"/><path d="M75.898 399.542c-1.414 3.6-3.647 7.146-6.7 10.64-4.87 5.58-15.92 7.18-22.84 6.65l5.35-.48a1.1 1.1 0 0 0 .99-1.04c.05-1.1.81-2.12 1.81-2.75a60.373 60.373 0 0 0 12.39-10.42 57.4 57.4 0 0 0 1.01-1.42c1.286-1.854 3.95-2.247 7.99-1.18Z" fill="#B1FEE8" fill-rule="nonzero"/><ellipse fill="#00031F" fill-rule="nonzero" transform="rotate(132.3 266.558 411.791)" cx="266.558" cy="411.791" rx="7.01" ry="6.86"/><path d="M351.258 413.622c.54 1.02 1.42 1.71 2.64 2.07-2.587.88-4.724.696-6.41-.55l3.77-1.52Z" fill="#FFF" fill-rule="nonzero"/><path d="m116.838 414.762 5.18 1.53a.55.55 0 0 1 .03 1.05c-18.874 6.52-33.044 18.803-42.51 36.85-3.02-4.9-3.69-11.28-3.31-17 .82-12.45 12.13-20.61 23.85-21.48 5.14-.38 10.726-.697 16.76-.95Z" fill="#2F9EEF" fill-rule="nonzero"/><path d="M433.898 416.012c.773-.147 2.026.126 3.76.82.666.266.66.513-.02.74-16.28 5.41-34.15 17.93-41.67 33.84-1.41 3-3.37 6.45-3.92 9.73-.327 1.926-.764 1.95-1.31.07l-.74-2.54c1.306-1.4 1.726-3.407 1.26-6.02-1.55-8.55-3.33-17.44 1.97-25.19 3.98-5.84 9.27-9.3 16.43-10.74 7.48-1.5 15.56-1.737 24.24-.71Z" fill="#EA3B83" fill-rule="nonzero"/><path d="M227.43 440.487c.438 10.44-8.131 19.276-19.14 19.738-5.286.221-10.44-1.557-14.327-4.946-3.887-3.388-6.188-8.109-6.398-13.122-.438-10.44 8.132-19.277 19.14-19.738 5.286-.222 10.44 1.557 14.327 4.945 3.887 3.389 6.188 8.109 6.399 13.123Zm-25.182-4.735-1.91 2.34c-1.72 3.22-.74 6.49 1.92 8.79 4.12 3.56 9.56 1.97 12.34-2.01 3.38-4.84-1.08-9.49-5.64-10.98-2.06-.68-4.297-.06-6.71 1.86Z" fill="#00031F" fill-rule="nonzero"/><path d="M200.338 438.092c.673 2 2.26 2.976 4.76 2.93 4.32-.07 4.05-6.31.59-6.2-1.17.03-2.07.83-3.44.93 2.413-1.92 4.65-2.54 6.71-1.86 4.56 1.49 9.02 6.14 5.64 10.98-2.78 3.98-8.22 5.57-12.34 2.01-2.66-2.3-3.64-5.57-1.92-8.79Z" fill="#3ADEFD" fill-rule="nonzero"/><path d="m200.338 438.092 1.91-2.34c1.37-.1 2.27-.9 3.44-.93 3.46-.11 3.73 6.13-.59 6.2-2.5.046-4.087-.93-4.76-2.93Z" fill="#FFF" fill-rule="nonzero"/><rect fill="#00031F" fill-rule="nonzero" x="274.808" y="442.952" width="29.78" height="11.5" rx="5.52"/></g></svg>